<svg width="209" height="70" xmlns="http://www.w3.org/2000/svg"><defs><linearGradient x1="118.735%" y1="60.657%" x2="2.725%" y2="48.663%" id="a"><stop stop-color="#FFFCB3" offset="0%"/><stop stop-color="#0DE4F8" offset="100%"/></linearGradient></defs><g fill="none" fill-rule="evenodd"><path d="M20 0h165c11.046 0 20 8.954 20 20v37a9 9 0 0 1-9 9H20C8.954 66 0 57.046 0 46V20C0 8.954 8.954 0 20 0Z" stroke="url(#a)" stroke-width="3" transform="translate(2 2)"/><path d="M41.182 30.714v-1.638h-7.056c.198-.432.378-.864.54-1.314l-1.728-.504c-.234.63-.504 1.242-.846 1.818h-5.58v1.638h4.356c-1.242 1.368-2.916 2.412-5.274 3.402l.828 1.602c1.386-.612 2.592-1.26 3.618-1.962v.612h7.632v-.558c1.08.702 2.286 1.296 3.654 1.8l.738-1.656c-2.466-.846-4.14-1.782-5.418-3.24h4.536Zm-9.828 2.034c.702-.63 1.314-1.26 1.818-2.034h1.314c.486.738 1.08 1.404 1.8 2.034h-4.932Zm-4.518 4.392h2.448l-.594 2.682h8.532c-.072.414-.18.918-.252 1.26-.144.576-.378.846-1.62.9l-2.268.108.54 1.728 1.98-.126c2.142-.144 2.808-.54 3.132-2.25l.45-3.186H30.94l.234-1.116h9.666v-1.602H26.836v1.602Zm31.032 2.106a10.368 10.368 0 0 1-.162 1.692c-.144.648-.252.846-1.188.954a7.155 7.155 0 0 1-1.242 0c-.864-.054-1.134-.18-1.134-.99v-2.808h3.438v-5.706h-5.256v-1.566h6.768v-1.656h-6.768v-1.584l-1.674-.072v1.656h-6.624v1.656h6.624v1.566h-5.112v5.706h2.916l-.054.306c-.288 2.124-1.386 2.952-4.824 4.104l.846 1.782c3.69-1.494 5.454-2.772 5.796-5.31.054-.216.072-.54.126-.882h2.088v3.312c0 1.602.54 2.088 2.178 2.178.72.036 1.44.036 2.142 0 1.8-.09 2.304-.522 2.538-1.962.126-.774.162-1.278.216-1.8l-1.638-.576Zm-10.62-5.184h8.64v2.412h-8.64v-2.412Zm17.1 10.386c.918-1.206 1.98-3.6 1.98-5.13h-2.16c0 1.44-.774 3.69-1.638 5.13h1.818Zm20.466-9.45c.702-1.098 1.404-2.304 1.998-3.6h5.904l-1.242 2.304 1.71.594 1.476-2.898v-1.71h-7.092c.27-.63.468-1.224.666-1.854l-1.782-.36c-.63 2.214-1.872 4.788-3.168 6.552l1.53.972Zm.81.216c-.666 2.07-1.836 4.626-2.916 6.336V31.542c.486-1.08.882-2.196 1.296-3.492l-1.8-.432c-.774 2.88-2.43 5.922-3.69 7.758l1.188 1.404c.432-.63.828-1.242 1.242-1.89v8.82h1.764v-2.088l1.62.666c1.152-1.908 2.268-4.518 2.898-6.624l-1.602-.45Zm2.736 5.868c0 .594-.144.756-.954.846l-.972.108.558 1.8 1.026-.108c1.602-.144 2.088-.522 2.088-1.998v-9l-1.746-.072v8.424Zm2.502-5.184c.846 1.656 2.196 4.482 2.97 6.516l1.494-1.008c-.522-1.476-2.07-4.626-2.916-6.228l-1.548.72Zm16.488-5.832a23.13 23.13 0 0 0 .792-2.574l-1.764-.414C106 28.86 105.082 31.254 104.02 33v-2.988h-2.7c.27-.846.504-1.836.63-2.484l-1.872-.324a28.728 28.728 0 0 1-.684 2.808h-1.908V43.44h6.534V33.324l1.404.936c.45-.738.846-1.53 1.206-2.376h3.726l-.27 8.352c-.054 1.224-.342 1.35-1.602 1.44l-1.512.108.558 1.872 1.53-.108c1.98-.144 2.664-.576 2.754-2.394 0-.684.36-10.278.36-11.088h-4.824Zm-5.058 1.746v3.798h-3.078v-3.798h3.078Zm6.912 5.598c-.72-1.134-1.962-2.826-2.862-3.816l-1.26 1.098c.756.954 1.998 2.754 2.628 3.906l1.494-1.188Zm-9.99 4.212v-4.194h3.078v4.194h-3.078Zm24.264-12.672a18.526 18.526 0 0 0-.504-1.512l-1.8.306c.162.432.288.828.378 1.206h-6.948v1.44h15.66v-1.44h-6.786Zm-6.39 2.394v3.618h10.71v-3.618h-10.71Zm8.928 2.34h-7.182v-1.08h7.182v1.08ZM115.684 43.8h1.728v-6.516h10.044v3.888c0 .72-.09.864-1.008.954l-.882.108.54 1.566.972-.126c1.656-.198 2.142-.576 2.142-2.052v-5.688h-13.536V43.8Zm10.296-5.58h-7.092v3.798h7.092V38.22Zm-1.692 2.448h-3.69V39.57h3.69v1.098Zm20.448-1.638c1.062-1.854 1.656-4.014 1.998-6.894h1.224v-1.8h-4.932a29.7 29.7 0 0 0 .738-2.592l-1.746-.216c-.378 1.962-1.44 4.734-2.448 6.336l1.08 1.458c.09-.144.18-.288.252-.432.342 1.584.9 2.952 1.674 4.248-.918 1.224-2.16 2.322-3.906 3.492l1.188 1.53c1.566-1.152 2.826-2.322 3.78-3.492.972 1.206 2.196 2.376 3.654 3.492l1.134-1.62c-1.512-1.152-2.736-2.268-3.69-3.51Zm-4.446-9h-2.88a29.457 29.457 0 0 0-.702-2.322l-1.692.216c.144.486.45 1.386.594 2.106h-3.168v1.8h7.848v-1.8Zm-5.616 1.872c-.72 1.404-1.746 3.096-2.7 4.14l1.152 1.116a22.193 22.193 0 0 0 2.988-4.428l-1.44-.828Zm4.752 9.288a54.818 54.818 0 0 0-1.746-2.16c.504-.882.936-1.818 1.278-2.88l.45.72 1.242-1.044c-.72-1.044-2.16-3.06-2.934-3.888l-1.206.9c.54.63 1.494 1.89 2.196 2.934l-1.26-.45c-.234.81-.54 1.602-.918 2.358-.63-.702-1.206-1.35-1.764-1.944l-1.17 1.116a155.51 155.51 0 0 1 1.98 2.34c-.936 1.296-2.16 2.394-3.744 3.474l1.08 1.494c1.512-1.152 2.754-2.304 3.762-3.618.594.72 1.134 1.368 1.566 1.926l1.188-1.278Zm2.898-9.054h2.718c-.27 2.106-.63 3.762-1.368 5.274-.756-1.386-1.278-2.97-1.566-4.788l.216-.486Zm16.632-.936c-.846 1.368-2.322 2.844-4.05 3.924l-.288-1.332c-.36.198-.756.396-1.206.612v-2.268h1.566v-1.494h1.404v1.35h1.728v-1.35h3.258v1.35h1.692v-1.35h2.232v-1.53h-2.232v-1.656l-1.692-.072v1.728h-3.258v-1.656l-1.728-.072v1.728h-1.566v1.314h-1.404v-2.808l-1.656-.072v2.88H150.1v1.71h1.656v3.042c-.846.378-1.638.702-2.214.918l.36 1.692c.486-.198 1.134-.432 1.854-.774v4.068c0 .576-.198.666-.774.72l-.936.072.54 1.746.9-.09c1.512-.144 1.926-.414 1.926-1.854v-5.418c.288-.126.558-.27.828-.396l.666 1.332c.63-.36 1.206-.756 1.764-1.206v.576h6.192v-.882c.738.522 1.53.972 2.304 1.386l.738-1.638c-2.304-1.062-4.23-2.574-5.382-4.23h-1.566Zm-1.242 3.87c.846-.792 1.548-1.62 2.07-2.466.558.846 1.35 1.692 2.286 2.466h-4.356Zm-2.142 8.532h1.71v-.792h4.968v.81h1.728v-5.94h-8.406v5.922Zm6.678-4.392v2.16h-4.968v-2.16h4.968Zm16.794-11.628-1.71-.072v5.598h-3.69v1.782h7.344v2.16h-6.984v1.764h6.984v2.358h-7.668v1.782h7.668v.828h1.71V33.108h-3.654v-5.526Zm-4.932 8.658c-.558-.756-1.512-1.818-2.088-2.394l-.45.432V32.46h1.998v-1.746h-1.998v-3.078l-1.656-.072v3.15h-1.926v1.746h1.782c-.72 1.998-1.8 4.32-2.664 5.562l1.08 1.62c.63-.936 1.206-2.07 1.728-3.294v7.398h1.656v-8.064c.486.576 1.026 1.26 1.404 1.818l1.134-1.26Zm2.844-4.572c-.576-1.008-1.818-2.898-2.304-3.528l-1.404.99c.684.864 1.728 2.646 2.25 3.564l1.458-1.026Zm4.626-3.474c-.432.936-1.512 2.646-2.232 3.654l1.476.954c.63-.864 1.728-2.7 2.268-3.726l-1.512-.882Z" fill="#424242" fill-rule="nonzero"/></g></svg>