<svg width="280" height="70" xmlns="http://www.w3.org/2000/svg"><defs><linearGradient x1="118.735%" y1="55.879%" x2="2.725%" y2="49.263%" id="a"><stop stop-color="#FFFCB3" offset="0%"/><stop stop-color="#0DE4F8" offset="100%"/></linearGradient></defs><g fill="none" fill-rule="evenodd"><path d="M20 0h236c11.046 0 20 8.954 20 20v37a9 9 0 0 1-9 9H20C8.954 66 0 57.046 0 46V20C0 8.954 8.954 0 20 0Z" stroke="url(#a)" stroke-width="3" transform="translate(2 2)"/><path d="M26.954 42h8.568v-1.89h-5.796v-.144l.774-.612c3.78-3.006 4.644-4.356 4.644-6.48 0-2.43-1.602-3.546-4.248-3.546-1.152 0-2.232.126-3.15.396v1.908a9.563 9.563 0 0 1 2.754-.414c1.314 0 2.34.414 2.34 1.926 0 1.548-1.188 2.988-5.886 6.732V42Zm14.832.18c2.682 0 4.428-1.278 4.428-6.426 0-5.13-1.746-6.426-4.428-6.426-2.664 0-4.428 1.296-4.428 6.426 0 5.148 1.764 6.426 4.428 6.426Zm0-1.944c-1.512 0-2.142-.882-2.142-4.482 0-3.582.63-4.482 2.142-4.482s2.16.9 2.16 4.482c0 3.6-.648 4.482-2.16 4.482ZM48.014 42h8.568v-1.89h-5.796v-.144l.774-.612c3.78-3.006 4.644-4.356 4.644-6.48 0-2.43-1.602-3.546-4.248-3.546-1.152 0-2.232.126-3.15.396v1.908a9.563 9.563 0 0 1 2.754-.414c1.314 0 2.34.414 2.34 1.926 0 1.548-1.188 2.988-5.886 6.732V42Zm10.53 0h8.568v-1.89h-5.796v-.144l.774-.612c3.78-3.006 4.644-4.356 4.644-6.48 0-2.43-1.602-3.546-4.248-3.546-1.152 0-2.232.126-3.15.396v1.908a9.563 9.563 0 0 1 2.754-.414c1.314 0 2.34.414 2.34 1.926 0 1.548-1.188 2.988-5.886 6.732V42Zm26.154-3.996h-6.354v-3.096h5.058v-1.692h-5.058v-2.628h5.526v-1.71H73.826l.558-1.224-1.746-.522a17.16 17.16 0 0 1-3.888 5.76l1.134 1.548c1.152-1.278 2.124-2.502 2.97-3.852h3.762v2.628h-5.292v4.788h-2.538v1.71h7.83v3.816h1.728v-3.816h6.354v-1.71Zm-11.61 0v-3.096h3.528v3.096h-3.528Zm16.47-1.044h1.782v-6.426a23.804 23.804 0 0 0 1.512-2.484l-1.548-.702a23.264 23.264 0 0 1-4.662 5.724l.792 1.584a29.386 29.386 0 0 0 2.124-1.962v4.266Zm2.376-2.412a38.55 38.55 0 0 0 2.79-.972v.936c0 1.674.666 2.088 2.034 2.178.954.072 2.016.072 2.97 0 1.764-.144 2.052-.468 2.43-1.998.09-.378.144-.756.198-1.17l-1.62-.576c-.054.432-.072.738-.162 1.152-.144.612-.306.792-1.206.882a7.982 7.982 0 0 1-1.854 0c-.702-.09-.99-.234-.99-1.044v-1.098c1.89-.846 3.564-1.764 5.202-2.916l-.864-1.566c-1.386.954-2.772 1.8-4.338 2.538v-3.24l-1.8-.072v4.104a36.16 36.16 0 0 1-3.348 1.152l.558 1.71Zm10.638 3.834h-6.93v-1.71l-1.836-.072v1.782h-6.948v1.764h6.948v3.744h1.836v-3.744h6.93v-1.764Zm10.26-7.02c.054-.99.252-3.006.252-3.726l-1.872-.072c-.09.72-.18 2.79-.27 3.798h-2.106l1.134-1.314c-.576-.72-1.71-1.98-2.358-2.574l-1.278 1.152c.576.522 1.818 2.016 2.394 2.736h-3.456v1.836h5.454c-.666 4.014-2.376 6.372-6.246 9.234l1.404 1.494c4.194-3.222 6.084-6.03 6.75-10.728h4.734c-.072 1.098-.234 5.526-.378 6.912-.144 1.206-.36 1.314-2.016 1.458l-1.692.144.612 1.89 1.674-.144c2.358-.198 3.132-.612 3.222-2.466.072-1.926.45-8.352.522-9.63h-6.48Zm3.33 6.192c-.576-.72-2.07-2.358-2.7-2.988l-1.278 1.224c.576.576 2.232 2.466 2.718 3.186l1.26-1.422Zm9.54-6.372h12.024V29.49h-5.436c-.27-.846-.45-1.44-.72-2.106l-1.836.306c.27.594.414 1.17.576 1.8h-6.318v5.382c0 3.78-.468 5.49-2.052 8.244l1.656.81c1.494-2.862 2.106-4.824 2.106-9.126v-3.618Zm7.29 7.506c-.342-2.016-.972-4.95-1.404-6.498l-1.656.342a129.43 129.43 0 0 1 1.368 6.732l1.692-.576Zm1.296 2.556c.9-2.484 2.07-6.012 2.7-8.118l-1.674-.45c-.72 2.484-1.836 5.958-2.808 8.568h-7.074v1.71h12.672v-1.71h-3.816Zm-4.482-1.674c-.522-1.872-1.584-5.094-2.25-6.822l-1.512.504c.63 1.746 1.62 5.094 2.142 7.02l1.62-.702Zm11.664-11.178V35.7c0 4.122-.396 5.076-1.908 7.542l1.656.9c1.044-1.818 1.656-3.276 1.89-5.274h3.996v4.608h1.746v-4.608h3.888v2.106c0 .792-.072.864-1.08.954l-1.17.108.54 1.854 1.206-.108c1.728-.144 2.268-.54 2.268-2.214V28.392H141.47Zm5.634 1.782v2.646h-3.852v-2.646h3.852Zm5.634 2.646h-3.888v-2.646h3.888v2.646Zm-9.504 4.266c.018-.234.018-.45.018-.72v-1.764h3.852v2.484h-3.87Zm5.616 0v-2.484h3.888v2.484h-3.888Zm24.336-6.39v-1.62h-6.498c-.198-.594-.36-1.17-.522-1.62l-1.854.252c.126.378.306.882.45 1.368h-6.858v1.62h3.78l.432 1.836h-3.186v11.052h1.656v-6.192l.756.972.9-.738v4.248h6.552v-4.41c.36.342.666.666.882.882l.9-1.422c-.576-.576-2.232-2.052-3.15-2.772l-1.116 1.098c.486.378 1.206.99 1.854 1.62h-5.022c.666-.594 1.296-1.17 1.728-1.656l-1.116-1.08c-.72.828-2.088 2.052-3.168 2.88v-2.952h9.99v7.056c0 .81-.144.918-1.008 1.008l-1.26.126.522 1.53 1.134-.108c1.728-.144 2.268-.414 2.268-2.052v-9.09h-3.276c.216-.63.45-1.278.612-1.836h3.618Zm-9.27 1.836-.432-1.836h4.23c-.198.63-.45 1.314-.648 1.836h-3.15Zm-.126 5.868h3.456v1.944h-3.456V38.4Zm21.474-9.144c-.198-.558-.36-1.026-.558-1.548l-1.89.288c.162.414.288.828.414 1.26h-6.138l-.018 5.508c0 3.888-.36 5.598-2.034 8.19l1.8.846c1.62-2.682 2.034-4.626 2.034-9.198v-3.654h12.258v-1.692h-5.868Zm-.072 2.016-1.836-.072v5.382h-3.438v7.11h1.8v-.828h6.12v.828h1.836v-7.11h-4.482v-2.034h5.454v-1.692h-5.454v-1.584Zm2.646 9.918h-6.12v-2.88h6.12v2.88Zm5.49-3.798h5.454v-1.836h-5.454zm23.382 4.122h-12.618V29.868h12.546v-1.656h-14.292v15.03h14.364v-1.728Zm-5.436-5.328v4.86h1.764v-4.86h3.348v-1.638h-8.388v-1.476c2.304-.198 4.878-.594 6.984-1.08l-.432-1.638c-2.61.63-5.256.99-8.352 1.152v3.33c0 3.078-.216 3.708-1.71 5.598l1.386 1.08c1.458-1.782 2.016-2.898 2.106-5.328h3.294Zm13.086-7.596c1.386 1.89 2.61 3.582 3.78 5.382l1.494-1.314c-1.242-1.746-2.43-3.294-3.888-5.148l-1.386 1.08Zm.36 2.7-1.926-.072v9.396c0 2.178.774 2.61 2.772 2.754.882.054 1.782.054 2.664 0 2.124-.144 2.592-.648 2.97-2.43.144-.666.216-1.134.288-1.98l-1.872-.63c-.054.774-.108 1.314-.234 1.908-.144.864-.288 1.17-1.512 1.26-.63.054-1.26.054-1.908 0-1.008-.09-1.242-.216-1.242-1.224V31.29Zm5.526 1.818c1.134 2.286 2.124 4.518 3.078 6.768l1.656-.9c-.99-2.25-1.962-4.392-3.096-6.624l-1.638.756Zm-10.206 7.056c.81-2.106 1.674-4.824 2.196-7.038l-1.818-.396c-.576 2.232-1.368 4.878-2.142 6.84l1.764.594Zm31.392-1.206v-1.602h-6.336V36.6l-.954-.036c3.762-1.458 6.174-3.258 7.56-5.58v-1.836h-5.04c.234-.378.45-.792.684-1.224l-1.584-.684c-.81 1.602-2.016 3.186-3.456 4.482v-3.96l-1.71-.072v4.518c-1.134.612-3.672 1.908-4.158 2.052l.63 1.656c.342-.198 2.286-1.206 3.528-1.818v2.484h1.71v-4.32l.792 1.026c.414-.342.738-.666 1.08-1.008a75.276 75.276 0 0 1 1.944 1.512 20.538 20.538 0 0 1-3.366 1.44l.774 1.314-.288-.018v.828h-6.3v1.602h5.922c-.81 1.422-2.898 2.394-6.768 3.258l.846 1.854c3.762-1.08 6.084-2.25 7.236-3.78 1.278 1.638 3.6 2.736 7.344 3.726l.774-1.854c-3.816-.774-5.976-1.71-7.056-3.204h6.192Zm-11.106-7.686a25.879 25.879 0 0 0-2.106-3.15l-1.296.9c.702.918 1.494 2.142 2.142 3.24l1.26-.99Zm5.256-.576h4.176c-.738 1.08-1.89 2.124-3.546 3.042l.792-1.224a28.547 28.547 0 0 0-1.8-1.332l.378-.486Z" fill="#424242" fill-rule="nonzero"/></g></svg>