<svg width="246" height="70" xmlns="http://www.w3.org/2000/svg"><defs><linearGradient x1="118.735%" y1="57.647%" x2="2.725%" y2="49.041%" id="a"><stop stop-color="#FFFCB3" offset="0%"/><stop stop-color="#0DE4F8" offset="100%"/></linearGradient></defs><g fill="none" fill-rule="evenodd"><path d="M20 0h202c11.046 0 20 8.954 20 20v37a9 9 0 0 1-9 9H20C8.954 66 0 57.046 0 46V20C0 8.954 8.954 0 20 0Z" stroke="url(#a)" stroke-width="3" transform="translate(2 2)"/><path d="M27.972 42H37.8v-2.07h-7.038v-.108l6.588-8.226v-2.088h-9.018v2.052h6.138l.018.108-6.516 8.154zm24.714-3.078V33.27h2.646v-1.782h-2.646v-3.906l-1.764-.072v3.978H47.79V27.6l-1.818-.072v3.96h-2.484v-3.456l-1.836-.072v3.528h-2.304v1.782h2.304v9.81h13.122v-1.692H43.488V33.27h2.484v5.652h6.714Zm-1.764-5.652v3.906H47.79V33.27h3.132Zm10.134-5.706c-.864 2.952-2.7 6.336-4.284 8.244l1.08 1.656a43.316 43.316 0 0 0 1.764-2.592v8.838h1.782V31.632a27.826 27.826 0 0 0 1.44-3.528l-1.782-.54Zm9.918 12.924c-.288 1.008-.45 1.188-.882 1.188-.342 0-.63-.162-1.062-.792-.702-.954-1.368-3.042-1.8-6.354l5.832-.522-.126-1.782-5.886.54c-.054-.558-.072-1.116-.126-1.746-.054-1.026-.162-2.826-.162-3.402h-1.818c.054 1.008.126 2.664.18 3.348.054.702.072 1.332.126 1.962l-3.6.324.144 1.764 3.636-.324c.414 3.456 1.098 5.724 2.088 7.164.936 1.386 1.71 1.854 2.574 1.854 1.116 0 1.692-.486 2.268-2.034.234-.63.36-1.152.558-1.89l-1.548-.9c-.108.558-.234 1.08-.396 1.602Zm.684-9.936c-.666-.666-2.142-1.944-2.862-2.52l-1.008 1.242c.702.558 2.232 1.998 2.862 2.718l1.008-1.44Zm16.884-2.556h-11.43v5.274h11.43v-5.274Zm-1.62 1.314v.774h-8.19v-.774h8.19Zm-8.19 2.718v-.792h8.19v.792h-8.19Zm4.788 8.424c-.198.054-.522.072-.972.126v-5.166h8.262v-1.296H74.826v1.296H76.5v5.958c-.774.126-1.314.18-1.548.198l.126 1.422c.63-.09 3.618-.504 5.904-.792V43.8h1.566v-1.782a20.69 20.69 0 0 1 1.044-.126l-.072-1.44Zm-2.538-5.04v1.008h-2.898v-1.008h2.898ZM90.99 42.18c-1.35-.45-2.43-.9-3.312-1.458a11.503 11.503 0 0 0 1.98-2.988v-1.476h-6.48v1.404h1.332l-1.008.486c.486 1.062 1.062 1.926 1.836 2.7-.666.522-1.512 1.026-2.502 1.476l.738 1.476a16.093 16.093 0 0 0 2.952-1.926c.99.702 2.178 1.35 3.744 1.944l.72-1.638Zm-3.078-4.518a8.69 8.69 0 0 1-1.44 2.16 6.297 6.297 0 0 1-1.566-2.16h3.006Zm-9.828.036h2.898v1.008h-2.898v-1.008Zm0 2.214h2.898v.882l-2.898.378v-1.26Zm21.528-8.874H93.78v1.296h13.482v-1.296h-5.886v-.828h6.732v-1.386h-6.732v-1.242l-1.764-.072v1.314h-6.678v1.386h6.678v.828Zm4.248 6.498.432-1.17h1.998v-3.33H94.77v3.33h1.872l.306 1.17h-4.536v1.332h16.2v-1.332h-4.752Zm-7.416-3.33h8.136v.918h-8.136v-.918Zm6.156 2.16a27.7 27.7 0 0 1-.432 1.17H98.64l-.324-1.17h4.284Zm-7.974 7.488h1.728v-.594h8.334v.594h1.728v-4.23h-11.79v4.23Zm10.062-2.988v1.17h-8.334v-1.17h8.334Zm7.992-7.668h10.998v1.152h1.656v-2.556h-2.628c.45-.63.954-1.296 1.332-1.854l-1.404-.774c-.432.756-1.278 1.908-1.854 2.628h-1.872l.738-.45c-.252-.504-.828-1.368-1.17-1.854 2.304-.162 4.572-.36 6.372-.558l-.198-1.368c-3.456.432-9.216.702-13.158.846l.108 1.458c.648-.018 1.35-.036 2.124-.09l-1.044.576c.27.306.738.954 1.008 1.44h-2.628v2.556h1.62v-1.152Zm5.13-3.654-.9.576c.216.252.774 1.098 1.116 1.674h-3.42l.72-.414c-.18-.306-.792-1.242-1.17-1.62l3.654-.216Zm8.37 12.744c-2.178-.306-3.888-.666-5.31-1.116 1.206-.738 2.25-1.584 3.096-2.538V37.32h-8.208c.198-.36.378-.756.54-1.17h8.766v-1.368h-8.298c.126-.342.18-.684.27-1.044l-1.674-.162c-.09.45-.198.846-.324 1.206h-3.654v1.368h3.114c-.918 1.962-2.34 3.546-4.518 5.292l.882 1.422c1.674-1.386 2.916-2.61 3.906-3.96.72.864 1.53 1.602 2.556 2.268-1.512.558-3.312.972-5.418 1.314l.666 1.638c2.556-.54 4.716-1.206 6.498-2.016 1.674.738 3.762 1.332 6.588 1.836l.522-1.656Zm-4.518-3.582c-.684.648-1.566 1.224-2.628 1.746-1.008-.504-1.8-1.08-2.466-1.746h5.094Zm16.938-8.64a23.13 23.13 0 0 0 .792-2.574l-1.764-.414c-.378 1.782-1.296 4.176-2.358 5.922v-2.988h-2.7c.27-.846.504-1.836.63-2.484l-1.872-.324a28.728 28.728 0 0 1-.684 2.808h-1.908V43.44h6.534V33.324l1.404.936c.45-.738.846-1.53 1.206-2.376h3.726l-.27 8.352c-.054 1.224-.342 1.35-1.602 1.44l-1.512.108.558 1.872 1.53-.108c1.98-.144 2.664-.576 2.754-2.394 0-.684.36-10.278.36-11.088H138.6Zm-5.058 1.746v3.798h-3.078v-3.798h3.078Zm6.912 5.598c-.72-1.134-1.962-2.826-2.862-3.816l-1.26 1.098c.756.954 1.998 2.754 2.628 3.906l1.494-1.188Zm-9.99 4.212v-4.194h3.078v4.194h-3.078Zm31.086-10.548v-1.746h-6.372c-.234-.774-.504-1.512-.666-1.998l-1.836.27c.144.414.342 1.08.54 1.728h-7.11v1.746h4.032c.144.81.378 2.214.522 3.15h-3.276v2.628c0 2.97-.45 4.284-2.088 6.3l1.638 1.044c1.53-2.16 2.196-3.924 2.196-6.984V35.97h11.88v-1.746h-3.618c.27-1.062.504-2.214.702-3.15h3.456Zm-9 3.15c-.144-.792-.36-2.232-.558-3.15h4.284c-.198 1.008-.414 2.196-.684 3.15h-3.042Zm24.12-6.264h-10.692v6.174h10.692V27.96Zm-1.782 4.482h-7.092v-2.79h7.092v2.79Zm-10.71 10.962h1.674v-.972h3.114v.972h1.674v-7.722h-6.462v7.722Zm7.668-7.722v7.722h1.674v-.972h3.222v.972h1.674v-7.722h-6.57Zm-2.88 1.638v3.474h-3.114V37.32h3.114Zm4.554 3.474v-3.456h3.222v3.456h-3.222Zm16.272.486c-2.124-.054-2.988-.234-3.924-1.314 3.6-2.07 7.776-5.328 9.864-7.614v-1.854h-5.22c-.288-.918-.648-2.178-.846-2.79l-1.836.27c.198.576.486 1.674.72 2.52h-5.796v1.818h10.44c-1.854 1.656-5.346 4.338-8.694 6.246a1.204 1.204 0 0 0-.468-.09c-.486 0-.738.144-1.242.702-.522.63-1.494 1.692-1.962 2.394l1.278 1.602c.342-.486.9-1.242 1.386-1.746.432-.45.522-.522.648-.522s.36.18.684.558c1.134 1.278 2.268 1.512 5.076 1.602 2.286.09 4.59.09 6.876 0l.342-1.782c-2.448.09-4.896.09-7.326 0Zm24.966-5.184V34.08h-15.912v2.016z" fill="#424242" fill-rule="nonzero"/></g></svg>