<svg width="349" height="70" xmlns="http://www.w3.org/2000/svg"><defs><linearGradient x1="118.735%" y1="53.763%" x2="2.725%" y2="49.528%" id="a"><stop stop-color="#FFFCB3" offset="0%"/><stop stop-color="#0DE4F8" offset="100%"/></linearGradient></defs><g fill="none" fill-rule="evenodd"><path d="M20 0h305c11.046 0 20 8.954 20 20v37a9 9 0 0 1-9 9H20C8.954 66 0 57.046 0 46V20C0 8.954 8.954 0 20 0Z" stroke="url(#a)" stroke-width="3" transform="translate(2 2)"/><path d="M37.918 35.52c.306-.306.594-.648.882-.99l-.864-.504c2.322-1.026 4.194-2.196 5.76-3.51v-1.638h-6.714c.306-.342.558-.612.828-.954l-1.512-.774c-1.44 1.584-3.87 3.33-6.444 4.608l.954 1.44c.774-.414 1.53-.81 2.25-1.26.846.45 1.764 1.008 2.286 1.368l.954-1.296c-.558-.378-1.188-.702-1.782-1.044.234-.162.468-.324.702-.522h5.94c-2.718 1.944-6.678 3.546-11.844 4.626l.756 1.494c2.466-.576 4.59-1.224 6.462-1.944-1.656 1.566-4.032 3.15-6.75 4.392l.864 1.476a31.33 31.33 0 0 0 3.24-1.746c.846.504 1.782 1.116 2.448 1.638l1.044-1.368a34.142 34.142 0 0 0-2.034-1.242l.9-.702h5.688c-2.142 2.034-5.598 3.834-12.942 5.418l.864 1.512c7.92-1.782 11.448-3.726 14.472-6.858v-1.62h-6.408Zm14.472-.036c.738-1.134 1.422-2.286 2.016-3.528h5.616c-.126.18-1.35 2.448-1.584 2.88l1.566.756c.198-.378 1.26-2.682 1.926-3.672v-1.728h-6.75c.306-.774.558-1.548.828-2.358l-1.782-.396c-.738 2.556-1.854 4.896-3.348 7.002l1.512 1.044Zm-1.17-3.132c-.666-1.278-1.818-3.276-2.538-4.338l-1.53.864c.684 1.008 1.926 3.312 2.448 4.518l1.62-1.044Zm5.814 2.88c.018-.27.036-.486.036-.756l.018-1.692-1.836-.072v1.602c0 3.582-1.368 5.742-5.598 8.136l1.134 1.674c2.826-1.674 4.59-3.51 5.508-5.688 1.026 2.232 2.826 4.05 5.4 5.652l1.098-1.782c-3.24-1.8-5.238-3.996-5.76-7.074Zm-7.794.252c-.486 1.746-1.872 5.634-2.502 7.074l1.818.774c.432-1.026 2.178-6.138 2.466-7.308l-1.782-.54Zm19.566-3.546h1.764v-1.152h3.438v1.152h1.764v-1.152h4.194v-1.584h-4.194v-1.638l-1.764-.072v1.71H70.57v-1.638l-1.764-.072v1.71h-4.23v1.584h4.23v1.152Zm10.458 3.672v-3.168h-13.95v3.168h1.8v-1.584h10.332v1.584h1.818Zm1.026 5.796c-2.592-.918-4.806-2.034-6.516-3.456h5.778v-1.656H73.18V34.8l-1.782-.072v1.566H64.99v1.656h5.742c-1.656 1.44-3.69 2.484-6.444 3.474l.864 1.728c2.448-1.08 4.572-2.214 6.246-3.654V43.8h1.782v-4.284c1.71 1.458 3.834 2.574 6.3 3.654l.81-1.764Zm13.698-.936-1.188-.72h2.592v-4.518c.63.378 1.314.738 2.088 1.098l.756-1.62c-1.44-.63-2.574-1.242-3.564-1.962a93.322 93.322 0 0 0 2.664-1.602l-.972-1.296c-.648.45-1.908 1.26-2.916 1.836a8.118 8.118 0 0 1-.882-1.062c.954-.576 2.304-1.422 3.042-1.872l-.954-1.224a32.738 32.738 0 0 1-2.826 1.836 9.28 9.28 0 0 1-.702-1.746l-1.548.288.126.396h-6.948v1.476h5.256c-.45.72-1.008 1.404-1.674 2.052-.558-.558-1.62-1.53-2.286-2.016l-1.008 1.116c.63.486 1.512 1.296 2.088 1.926-.954.738-2.088 1.44-3.42 2.106l.738 1.512a25.49 25.49 0 0 0 2.124-1.242v4.518h2.376l-1.062.684c.36.378.756.918 1.098 1.404h-4.554v1.476h15.066v-1.476H92.98l1.008-1.368Zm-4.086-11.61c.522 1.404 1.206 2.61 2.052 3.6h-3.978c.774-.846 1.422-1.692 1.926-2.628v-.972Zm-2.772 5.058h5.652v-.594c.72.702 1.548 1.296 2.556 1.872h-10.71a20.259 20.259 0 0 0 2.502-1.908v.63Zm-.882 2.736h7.434v1.638h-7.434v-1.638Zm6.264 3.096c-.378.576-1.116 1.494-1.584 2.088h-2.79l.558-.36c-.342-.558-.9-1.242-1.314-1.728h5.13ZM108.946 42h2.502l-4.644-12.492h-3.168L98.956 42h2.43l1.188-3.312h5.22L108.946 42Zm-5.67-5.292 1.818-5.094h.216l1.782 5.094h-3.816Zm14.94-4.608c-1.782 0-2.592.684-3.006 1.548V32.28h-2.25V45.6h2.25v-4.986c.414.954 1.206 1.566 3.006 1.566 3.186 0 3.924-2.286 3.924-5.04 0-3.042-.738-5.04-3.924-5.04Zm-.612 8.334c-1.962 0-2.52-1.296-2.52-3.294 0-2.088.558-3.312 2.52-3.312 1.944 0 2.214 1.44 2.214 3.312 0 1.746-.252 3.294-2.214 3.294Zm12.114-8.334c-1.782 0-2.592.684-3.006 1.548V32.28h-2.25V45.6h2.25v-4.986c.414.954 1.206 1.566 3.006 1.566 3.186 0 3.924-2.286 3.924-5.04 0-3.042-.738-5.04-3.924-5.04Zm-.612 8.334c-1.962 0-2.52-1.296-2.52-3.294 0-2.088.558-3.312 2.52-3.312 1.944 0 2.214 1.44 2.214 3.312 0 1.746-.252 3.294-2.214 3.294Zm9.396 1.674c2.448 0 3.852-.81 3.852-2.988 0-1.818-.648-2.448-2.808-2.97-1.512-.378-1.818-.486-1.818-1.26 0-.81.468-1.062 1.71-1.062.882 0 1.89.162 2.412.36l.108-1.764c-.486-.198-1.566-.324-2.592-.324-2.646 0-3.744 1.062-3.744 2.808 0 1.62.54 2.304 2.628 2.772 1.638.378 1.98.594 1.98 1.512s-.594 1.152-1.836 1.152c-.882 0-2.052-.162-2.898-.432v1.89c.774.198 1.926.306 3.006.306Zm10.764-8.028v-1.8h-2.142v-2.304h-2.25v2.304h-1.35v1.8h1.35v4.86c0 2.556.81 3.168 3.132 3.168.414 0 .828-.036 1.206-.09v-1.782c-.27.072-.54.09-.882.09-1.008 0-1.206-.306-1.206-1.566v-4.68h2.142Zm5.904 8.1c2.97 0 4.68-1.098 4.68-5.04s-1.71-5.04-4.68-5.04c-2.952 0-4.662 1.098-4.662 5.04s1.71 5.04 4.662 5.04Zm0-1.746c-1.746 0-2.34-.774-2.34-3.294s.558-3.312 2.34-3.312c1.782 0 2.358.792 2.358 3.312 0 2.52-.558 3.294-2.358 3.294Zm12.168-8.334c-1.134 0-2.34.324-2.916 1.926V32.28h-2.25V42h2.25v-5.778c.342-1.674 1.602-2.106 2.808-2.106h.234l.072-2.016h-.198Zm10.134 4.194c0-2.286-.702-4.194-4.068-4.194-2.952 0-4.662 1.098-4.662 5.04s1.71 5.04 4.662 5.04c1.584 0 2.988-.306 3.564-.648v-1.836c-.666.324-1.998.666-3.168.666-1.944 0-2.736-.738-2.79-2.376l6.372-.414c.054-.342.09-.792.09-1.278Zm-6.462.09c.054-1.674.594-2.556 2.394-2.556 1.728 0 1.98 1.026 1.98 2.232l-4.374.324Zm17.136 4.536V30.75h5.67v-1.89h-13.212v1.89h5.634v10.17h-6.876v1.782h15.66V40.92zm24.822-2.592h-2.574v-10.17h-10.998v10.17h-2.574v1.548h5.616c-1.512.936-3.348 1.836-5.274 2.574l.684 1.62c1.98-.846 4.266-1.944 5.796-2.898l-.81-1.296h3.942l-.684 1.476c1.458.576 4.032 1.71 5.616 2.574l.666-1.746c-1.386-.612-3.978-1.728-5.436-2.304h6.03v-1.548Zm-4.356-8.676v1.062h-7.434v-1.062h7.434Zm0 3.6h-7.434v-1.08h7.434v1.08Zm0 1.422v1.098h-7.434v-1.098h7.434Zm-7.434 2.556h7.434v1.098h-7.434V37.23Zm14.202.108c2.844-1.062 4.68-1.89 6.318-3.096v1.638h1.764v-3.006h6.282v-1.512h-3.636c.864-.774 2.016-1.8 2.646-2.43l-1.224-1.152c-.666.72-1.944 1.926-2.808 2.646l.846.936h-2.106V27.69l-1.764-.072v3.744h-2.124l.864-1.098c-.684-.72-2.052-1.908-2.88-2.484l-1.062 1.188c.72.576 1.908 1.674 2.628 2.394h-3.654v1.512h5.31c-1.602 1.134-3.654 2.034-5.976 2.7l.576 1.764Zm8.244-2.79c1.638.666 4.536 1.764 6.12 2.538l.522-1.656c-1.494-.63-4.644-1.728-6.174-2.358l-.468 1.476Zm6.102 4.536v-1.566h-6.228v-1.062l-1.818-.072v1.134h-6.174v1.566h5.796c-.846 1.422-3.042 2.52-6.714 3.222l.54 1.836c3.906-1.026 6.39-2.052 7.56-3.69 1.368 1.728 3.834 2.862 7.362 3.798l.468-1.944c-3.384-.558-5.616-1.836-6.714-3.222h5.922Zm18.63-.36h-3.474V36.33h2.718v-1.818h-2.718v-2.394h2.952v-1.836h-2.952v-2.556l-1.692-.072v16.092h1.692v-3.132h3.474v-1.89Zm-11.052-4.572c-.306.162-.648.306-1.026.504V32.37h1.314v-1.746h-1.314v-2.826l-1.656-.072v2.898h-1.89v1.746h1.89v3.042a32.21 32.21 0 0 1-2.466.972l.396 1.746a35.121 35.121 0 0 0 2.07-.828v3.888c0 .666-.18.774-.864.828l-.882.072.522 1.674.756-.09c1.656-.198 2.124-.378 2.124-1.926v-5.184l1.404-.702-.378-1.71Zm2.826-3.87h-2.106v1.854h2.106v2.376h-2.376v1.818h2.376v2.394h-2.916v1.89h2.916v3.096h1.692V27.852l-1.692-.072v2.502Zm14.31-2.862c-1.062 1.386-2.826 3.222-4.266 4.32l1.008 1.476c1.494-1.116 3.456-3.042 4.608-4.572l-1.35-1.224Zm10.566.99h-8.064v1.728h8.064V28.41Zm-10.566 3.582c-1.116 1.746-3.078 3.924-4.68 5.364l.9 1.404c.558-.45 1.152-1.026 1.782-1.656v6.534h1.764v-8.406c.63-.738 1.188-1.476 1.602-2.142l-1.368-1.098Zm11.448 1.71H255.88v1.71h5.454v5.346c0 .864-.252 1.008-1.134 1.098l-1.566.144.54 1.836 1.422-.126c1.89-.144 2.61-.666 2.61-2.412v-5.886h2.682v-1.71Zm9.468-1.17h-2.196v2.718h1.602v-1.26h6.678v1.26h1.602v-2.718h-2.106c.126-.63.252-1.314.378-1.89h1.692v-1.548h-3.924a41.724 41.724 0 0 0-.558-1.728l-1.746.234c.126.36.288.936.45 1.494h-4.104v1.548h1.944l.288 1.89Zm8.082 4.842v-1.548h-4.266c-.198-.63-.378-1.26-.522-1.62l-1.638.234c.126.342.27.864.432 1.386h-4.446l.288-.324c-.414-.594-1.044-1.404-1.566-1.908l-.324.324V32.46h1.638v-1.638h-1.638v-3.15l-1.602-.072v3.222h-1.872v1.638h1.764c-.72 2.016-1.818 4.374-2.682 5.85l1.386 1.008c.504-.882.99-1.908 1.404-3.042v7.542h1.602v-8.316c.306.378.594.774.864 1.188l.72-.828v1.512h2.124c-.09 2.07-.45 3.96-3.258 5.4l.918 1.476c2.16-1.242 3.132-2.754 3.582-4.284h3.888c-.054.342-.108.864-.162 1.242-.09.63-.306.792-1.098.846l-1.152.108.486 1.602 1.098-.108c1.692-.144 2.088-.486 2.286-2.016.054-.414.162-2.232.252-3.222h-5.292c.054-.342.054-.702.108-1.044h6.678Zm-6.48-4.842c-.09-.594-.18-1.296-.306-1.89h3.024c-.09.63-.234 1.26-.378 1.89h-2.34Zm24.138-3.726h-4.932c.198-.414.342-.774.504-1.188l-1.656-.378a19.21 19.21 0 0 1-1.404 2.952v-1.386h-4.05c.216-.414.396-.828.558-1.206l-1.728-.36c-.576 1.35-1.728 3.132-2.934 4.482l1.44.99c.63-.702 1.206-1.512 1.764-2.376h.612c.342.576.702 1.296.972 1.854h-2.772v1.53h5.112v1.314h-5.292l-.63 4.248h5.004c-1.422 1.098-3.294 1.962-6.174 2.844l.918 1.656c2.79-1.008 4.662-1.944 6.174-3.222v3.294h1.728v-4.572h4.392c-.018.27-.072.864-.126 1.098-.09.594-.288.666-1.062.72l-1.566.108.504 1.53 1.458-.108c1.548-.09 2.16-.468 2.304-1.764.126-.882.252-2.196.342-3.078h-6.246v-1.224h5.31V32.19h-1.944l1.152-.774a9.48 9.48 0 0 0-.648-1.08h2.916v-1.53ZM290.44 32.19l1.206-.81a15.112 15.112 0 0 0-.612-1.044h2.484c-.234.378-.468.738-.738 1.098l1.476.756c.414-.576.792-1.206 1.134-1.854h1.008c.342.576.72 1.296 1.008 1.854h-6.966Zm7.524 2.844h-3.654V33.72h3.654v1.314Zm-5.382 2.754h-3.978l.18-1.224h3.798v1.224Zm26.55-1.692V34.08H303.22v2.016z" fill="#424242" fill-rule="nonzero"/></g></svg>