<svg width="288" height="70" xmlns="http://www.w3.org/2000/svg"><defs><linearGradient x1="118.735%" y1="55.553%" x2="2.725%" y2="49.304%" id="a"><stop stop-color="#FFFCB3" offset="0%"/><stop stop-color="#0DE4F8" offset="100%"/></linearGradient></defs><g fill="none" fill-rule="evenodd"><path d="M20 0h244c11.046 0 20 8.954 20 20v37a9 9 0 0 1-9 9H20C8.954 66 0 57.046 0 46V20C0 8.954 8.954 0 20 0Z" stroke="url(#a)" stroke-width="3" transform="translate(2 2)"/><path d="M32.954 42h8.568v-1.89h-5.796v-.144l.774-.612c3.78-3.006 4.644-4.356 4.644-6.48 0-2.43-1.602-3.546-4.248-3.546-1.152 0-2.232.126-3.15.396v1.908a9.563 9.563 0 0 1 2.754-.414c1.314 0 2.34.414 2.34 1.926 0 1.548-1.188 2.988-5.886 6.732V42Zm14.832.18c2.682 0 4.428-1.278 4.428-6.426 0-5.13-1.746-6.426-4.428-6.426-2.664 0-4.428 1.296-4.428 6.426 0 5.148 1.764 6.426 4.428 6.426Zm0-1.944c-1.512 0-2.142-.882-2.142-4.482 0-3.582.63-4.482 2.142-4.482s2.16.9 2.16 4.482c0 3.6-.648 4.482-2.16 4.482ZM54.014 42h8.568v-1.89h-5.796v-.144l.774-.612c3.78-3.006 4.644-4.356 4.644-6.48 0-2.43-1.602-3.546-4.248-3.546-1.152 0-2.232.126-3.15.396v1.908a9.563 9.563 0 0 1 2.754-.414c1.314 0 2.34.414 2.34 1.926 0 1.548-1.188 2.988-5.886 6.732V42Zm10.53 0h8.568v-1.89h-5.796v-.144l.774-.612c3.78-3.006 4.644-4.356 4.644-6.48 0-2.43-1.602-3.546-4.248-3.546-1.152 0-2.232.126-3.15.396v1.908a9.563 9.563 0 0 1 2.754-.414c1.314 0 2.34.414 2.34 1.926 0 1.548-1.188 2.988-5.886 6.732V42Zm16.29.18c3.6 0 5.562-1.332 5.562-6.426 0-5.04-1.962-6.426-5.562-6.426-3.6 0-5.58 1.386-5.58 6.426 0 5.094 1.98 6.426 5.58 6.426Zm0-1.98c-2.556 0-3.114-1.206-3.114-4.446 0-3.186.558-4.482 3.114-4.482 2.538 0 3.096 1.296 3.096 4.482 0 3.24-.558 4.446-3.096 4.446Zm8.19 1.8h2.358v-4.05h1.638c3.402 0 4.806-1.134 4.806-4.284 0-2.952-1.134-4.158-4.806-4.158h-3.996V42Zm2.358-5.958v-4.626h1.35c1.998 0 2.682.576 2.682 2.286 0 1.818-.666 2.34-2.682 2.34h-1.35Zm8.82 5.958h2.358v-4.05h1.638c3.402 0 4.806-1.134 4.806-4.284 0-2.952-1.134-4.158-4.806-4.158h-3.996V42Zm2.358-5.958v-4.626h1.35c1.998 0 2.682.576 2.682 2.286 0 1.818-.666 2.34-2.682 2.34h-1.35Zm14.058 6.138c3.6 0 5.562-1.332 5.562-6.426 0-5.04-1.962-6.426-5.562-6.426-3.6 0-5.58 1.386-5.58 6.426 0 5.094 1.98 6.426 5.58 6.426Zm0-1.98c-2.556 0-3.114-1.206-3.114-4.446 0-3.186.558-4.482 3.114-4.482 2.538 0 3.096 1.296 3.096 4.482 0 3.24-.558 4.446-3.096 4.446Zm11.16-9.018h12.024V29.49h-5.436c-.27-.846-.45-1.44-.72-2.106l-1.836.306c.27.594.414 1.17.576 1.8h-6.318v5.382c0 3.78-.468 5.49-2.052 8.244l1.656.81c1.494-2.862 2.106-4.824 2.106-9.126v-3.618Zm7.29 7.506c-.342-2.016-.972-4.95-1.404-6.498l-1.656.342a129.43 129.43 0 0 1 1.368 6.732l1.692-.576Zm1.296 2.556c.9-2.484 2.07-6.012 2.7-8.118l-1.674-.45c-.72 2.484-1.836 5.958-2.808 8.568h-7.074v1.71h12.672v-1.71h-3.816Zm-4.482-1.674c-.522-1.872-1.584-5.094-2.25-6.822l-1.512.504c.63 1.746 1.62 5.094 2.142 7.02l1.62-.702Zm11.664-11.178V35.7c0 4.122-.396 5.076-1.908 7.542l1.656.9c1.044-1.818 1.656-3.276 1.89-5.274h3.996v4.608h1.746v-4.608h3.888v2.106c0 .792-.072.864-1.08.954l-1.17.108.54 1.854 1.206-.108c1.728-.144 2.268-.54 2.268-2.214V28.392h-13.032Zm5.634 1.782v2.646h-3.852v-2.646h3.852Zm5.634 2.646h-3.888v-2.646h3.888v2.646Zm-9.504 4.266c.018-.234.018-.45.018-.72v-1.764h3.852v2.484h-3.87Zm5.616 0v-2.484h3.888v2.484h-3.888Zm24.336-6.39v-1.62h-6.498c-.198-.594-.36-1.17-.522-1.62l-1.854.252c.126.378.306.882.45 1.368h-6.858v1.62h3.78l.432 1.836h-3.186v11.052h1.656v-6.192l.756.972.9-.738v4.248h6.552v-4.41c.36.342.666.666.882.882l.9-1.422c-.576-.576-2.232-2.052-3.15-2.772l-1.116 1.098c.486.378 1.206.99 1.854 1.62h-5.022c.666-.594 1.296-1.17 1.728-1.656l-1.116-1.08c-.72.828-2.088 2.052-3.168 2.88v-2.952h9.99v7.056c0 .81-.144.918-1.008 1.008l-1.26.126.522 1.53 1.134-.108c1.728-.144 2.268-.414 2.268-2.052v-9.09h-3.276c.216-.63.45-1.278.612-1.836h3.618Zm-9.27 1.836-.432-1.836h4.23c-.198.63-.45 1.314-.648 1.836h-3.15Zm-.126 5.868h3.456v1.944h-3.456V38.4Zm21.474-9.144c-.198-.558-.36-1.026-.558-1.548l-1.89.288c.162.414.288.828.414 1.26h-6.138l-.018 5.508c0 3.888-.36 5.598-2.034 8.19l1.8.846c1.62-2.682 2.034-4.626 2.034-9.198v-3.654h12.258v-1.692h-5.868Zm-.072 2.016-1.836-.072v5.382h-3.438v7.11h1.8v-.828h6.12v.828h1.836v-7.11h-4.482v-2.034h5.454v-1.692h-5.454v-1.584Zm2.646 9.918h-6.12v-2.88h6.12v2.88Zm5.49-3.798h5.454v-1.836h-5.454zm9.756-4.14c-.198.126-.414.306-.918.432l.414 1.656c2.898-.216 9.396-.45 11.16-.45l1.008 1.152 1.17-1.512a46.03 46.03 0 0 0-4.212-4.158l-1.224 1.116a41.277 41.277 0 0 1 1.764 1.782l-6.93.234c.792-.684 2.106-1.962 3.276-3.276h7.452v-1.692h-14.292v1.692h4.536c-1.062 1.152-2.286 2.322-3.204 3.024Zm6.732 8.352v-2.43h5.49v-1.656h-5.49V35.43l-1.8-.072v2.16h-5.526v1.656h5.526v2.43h-7.02v1.638h15.786v-1.638h-6.966Zm24.228-6.606h-6.624v-1.26h5.4v-1.422h-5.4v-1.314h5.958V29.58h-3.546c.486-.558.918-1.152 1.188-1.602l-1.422-.99c-.378.666-1.35 1.926-1.962 2.592h-3.348l.666-.612a28.953 28.953 0 0 0-1.782-1.926l-1.152 1.062c.486.522.864.99 1.278 1.476h-3.69v1.422h6.012v1.314h-5.436v1.422h5.436v1.26h-6.678v1.548h15.102v-1.548Zm-.486 4.554v-1.53h-6.156c0-.414.018-.936.018-1.224h-1.836l-.054 1.224h-6.102v1.53h5.616c-.792 1.134-2.754 2.16-6.516 2.808l.738 1.854c3.906-.846 6.174-2.088 7.272-3.582 1.314 1.584 3.69 2.862 7.2 3.528l.756-1.872c-3.51-.558-5.616-1.53-6.714-2.736h5.778Zm17.874-.594v-1.602h-6.336V36.6l-.954-.036c3.762-1.458 6.174-3.258 7.56-5.58v-1.836h-5.04c.234-.378.45-.792.684-1.224l-1.584-.684c-.81 1.602-2.016 3.186-3.456 4.482v-3.96l-1.71-.072v4.518c-1.134.612-3.672 1.908-4.158 2.052l.63 1.656c.342-.198 2.286-1.206 3.528-1.818v2.484h1.71v-4.32l.792 1.026c.414-.342.738-.666 1.08-1.008a75.276 75.276 0 0 1 1.944 1.512 20.538 20.538 0 0 1-3.366 1.44l.774 1.314-.288-.018v.828h-6.3v1.602h5.922c-.81 1.422-2.898 2.394-6.768 3.258l.846 1.854c3.762-1.08 6.084-2.25 7.236-3.78 1.278 1.638 3.6 2.736 7.344 3.726l.774-1.854c-3.816-.774-5.976-1.71-7.056-3.204h6.192Zm-11.106-7.686a25.879 25.879 0 0 0-2.106-3.15l-1.296.9c.702.918 1.494 2.142 2.142 3.24l1.26-.99Zm5.256-.576h4.176c-.738 1.08-1.89 2.124-3.546 3.042l.792-1.224a28.547 28.547 0 0 0-1.8-1.332l.378-.486Z" fill="#424242" fill-rule="nonzero"/></g></svg>