<svg width="364" height="70" xmlns="http://www.w3.org/2000/svg"><defs><linearGradient x1="118.735%" y1="53.456%" x2="2.725%" y2="49.567%" id="a"><stop stop-color="#FFFCB3" offset="0%"/><stop stop-color="#0DE4F8" offset="100%"/></linearGradient></defs><g fill="none" fill-rule="evenodd"><path d="M20 0h320c11.046 0 20 8.954 20 20v37a9 9 0 0 1-9 9H20C8.954 66 0 57.046 0 46V20C0 8.954 8.954 0 20 0Z" stroke="url(#a)" stroke-width="3" transform="translate(2 2)"/><path d="M28.954 42h8.568v-1.89h-5.796v-.144l.774-.612c3.78-3.006 4.644-4.356 4.644-6.48 0-2.43-1.602-3.546-4.248-3.546-1.152 0-2.232.126-3.15.396v1.908a9.563 9.563 0 0 1 2.754-.414c1.314 0 2.34.414 2.34 1.926 0 1.548-1.188 2.988-5.886 6.732V42Zm14.832.18c2.682 0 4.428-1.278 4.428-6.426 0-5.13-1.746-6.426-4.428-6.426-2.664 0-4.428 1.296-4.428 6.426 0 5.148 1.764 6.426 4.428 6.426Zm0-1.944c-1.512 0-2.142-.882-2.142-4.482 0-3.582.63-4.482 2.142-4.482s2.16.9 2.16 4.482c0 3.6-.648 4.482-2.16 4.482ZM50.014 42h8.568v-1.89h-5.796v-.144l.774-.612c3.78-3.006 4.644-4.356 4.644-6.48 0-2.43-1.602-3.546-4.248-3.546-1.152 0-2.232.126-3.15.396v1.908a9.563 9.563 0 0 1 2.754-.414c1.314 0 2.34.414 2.34 1.926 0 1.548-1.188 2.988-5.886 6.732V42Zm14.4 0h2.304V29.508h-1.656l-3.726.756v1.908l3.078-.594zm19.098-2.502c1.08-1.422 1.872-2.988 2.52-4.95v-1.62h-2.358l1.404-2.898v-1.638h-8.874v1.71h1.818c0 .9-.054 2.214-.054 2.754-.198 3.87-.954 6.264-2.988 9.252V35.43c.486.63 1.008 1.332 1.35 1.89l1.134-1.134c-.414-.702-1.458-1.926-2.016-2.484l-.468.45v-1.746h1.998v-1.584H74.98v-3.24l-1.638-.072v3.312H71.29v1.584h1.998c-.72 2.124-1.944 4.428-2.898 5.868l1.044 1.458a26.192 26.192 0 0 0 1.908-3.6v7.614h1.638v-1.098l1.152.81c1.728-2.628 2.664-4.878 3.096-7.722.504 1.422 1.188 2.592 2.034 3.726-1.098 1.098-2.556 2.124-4.338 3.078l.972 1.566c1.872-1.08 3.294-2.124 4.5-3.348 1.098 1.134 2.412 2.124 4.014 3.186l.972-1.62c-1.512-.846-2.79-1.746-3.87-2.826Zm-.234-9.396-1.404 2.952v1.512h2.448c-.486 1.368-1.098 2.556-1.944 3.654-1.314-1.71-2.214-3.744-2.844-6.426l.072-1.692h3.672Zm21.402 6.75c-2.394-.27-4.374-.612-6.048-1.098 1.386-.702 2.574-1.458 3.636-2.304v-.9h1.548v-3.456h-6.03c-.198-.63-.396-1.206-.558-1.692l-1.818.27c.144.414.306.9.45 1.422h-6.246v3.438h1.746v-1.89h10.71v1.404h-7.11c.198-.216.342-.414.504-.63l-1.512-.756c-.9 1.224-2.988 2.97-4.68 3.888l.972 1.368a22.957 22.957 0 0 0 2.268-1.566c.702.522 1.404.972 2.178 1.386-1.872.576-4.014 1.026-6.264 1.296l.432 1.692c.81-.126 1.584-.252 2.358-.45v5.364h1.746v-.612h7.488v.612h1.728v-5.4H91.414a36.319 36.319 0 0 0 5.22-1.602c2.178.846 4.644 1.458 7.722 1.908l.324-1.692Zm-5.058-3.366c-.774.576-1.764 1.08-2.97 1.566-1.062-.432-1.944-.936-2.754-1.566h5.724Zm.828 6.246v1.872h-7.488v-1.872h7.488Zm14.868-11.61c1.386 4.14 3.384 6.462 6.228 8.676l1.17-1.602c-2.808-1.944-4.428-4.032-5.724-7.668l-1.674.594Zm-3.546-.342c-1.134 2.898-3.096 5.364-5.67 7.524l1.152 1.53c2.682-2.322 4.878-5.076 6.246-8.46l-1.728-.594Zm3.762 9.864c.558.774 1.35 1.998 2.124 3.24l-6.624.396c1.206-1.53 2.88-4.518 4.032-7.11l-1.782-.738c-1.152 2.772-2.934 5.85-4.176 7.326-.342.378-.522.558-1.26.702l.576 1.782c2.088-.288 8.19-.648 10.206-.72.342.558.612 1.08.828 1.512l1.458-1.26c-.972-1.782-2.7-4.446-3.906-6.138l-1.476 1.008Zm9.45-9.576V43.8h1.8v-.738h10.8v.738h1.656V28.068h-14.256Zm1.8 13.392V29.814h10.8V41.46h-10.8Zm9.324-10.17h-7.974v1.494h7.974V31.29Zm-.558 5.994c0 .288-.036.558-.09.972-.09.684-.216.738-.702.738h-.27c-.486 0-.594-.036-.594-.594v-2.592h3.024v-1.494h-9.594v1.494h2.088c-.09 2.016-.63 2.862-2.466 3.924l1.026 1.494c1.962-1.386 2.934-2.484 3.024-5.418h1.386v2.898c0 1.296.432 1.71 1.512 1.71h1.206c1.224 0 1.602-.45 1.746-1.602.054-.414.09-.72.108-1.134l-1.404-.396Zm21.996.72h-6.354v-3.096h5.058v-1.692h-5.058v-2.628h5.526v-1.71h-10.044l.558-1.224-1.746-.522a17.16 17.16 0 0 1-3.888 5.76l1.134 1.548c1.152-1.278 2.124-2.502 2.97-3.852h3.762v2.628h-5.292v4.788h-2.538v1.71h7.83v3.816h1.728v-3.816h6.354v-1.71Zm-11.61 0v-3.096h3.528v3.096h-3.528Zm16.848-4.212h2.304v2.556h7.254v-2.556h2.646V32.28h-2.646v-1.116l-1.746-.072v1.188h-3.78v-1.116l-1.728-.072v1.188h-2.304v-1.476h12.258V29.22h-5.562c-.198-.63-.396-1.134-.612-1.71l-1.8.306c.198.486.324.918.468 1.404h-6.498v5.418c0 4.41-.468 5.796-1.908 8.424l1.53.882c1.404-2.502 2.124-4.302 2.124-8.784v-1.368Zm7.812 0v1.116h-3.78v-1.116h3.78Zm4.842 8.298c-2.088-.234-3.654-.522-5.004-.9 1.296-.738 2.286-1.566 3.132-2.556v-1.422H163.27v1.404h1.638l-.666.522c.792.792 1.584 1.44 2.43 1.998-1.368.45-2.934.828-4.878 1.134l.702 1.656c2.448-.522 4.374-1.098 6.012-1.8 1.728.774 3.726 1.26 6.408 1.71l.522-1.746Zm-4.23-3.474c-.702.702-1.584 1.296-2.736 1.818-1.008-.486-1.8-1.08-2.574-1.818h5.31Zm21.654-5.418v-1.782h-2.088l1.008-1.314a38.466 38.466 0 0 0-2.502-2.412l-1.116 1.206c.54.45 1.944 1.8 2.52 2.52h-3.744l.072-3.816-1.818-.072c0 .99-.036 2.97-.09 3.888h-3.15v1.782h3.024c-.378 3.996-1.098 6.3-3.798 9.09v-10.62c.522-1.17.972-2.394 1.386-3.69l-1.764-.504c-.81 2.934-2.646 6.21-4.068 8.064l1.116 1.566a24.165 24.165 0 0 0 1.566-2.196v8.82h1.764v-.774l1.17.972c3.186-3.474 4.248-6.084 4.536-10.728h5.976Zm-1.224 5.274c-.018.918-.054 1.62-.144 2.322-.072.63-.216.9-.774.9h-.81c-.666 0-.882-.18-.882-.918v-7.038l-1.8-.072v7.578c0 1.746.954 2.25 2.304 2.25h1.44c1.602 0 1.998-.504 2.196-2.142.09-.774.09-1.422.144-2.286l-1.674-.594ZM203.77 35.7v-2.07c1.656 1.602 3.834 2.736 6.642 3.888l.684-1.71c-2.214-.666-4.284-1.656-5.94-2.952h5.166v-1.512h-6.552v-1.53c1.926-.126 3.726-.27 5.22-.468l-.198-1.566c-3.366.432-8.496.72-11.934.774l.018 1.548c1.512-.054 3.348-.072 5.274-.198v1.44h-6.534v1.512h5.094c-1.458 1.224-3.24 2.142-5.706 2.988l.738 1.692c.648-.288 1.26-.576 1.836-.846v1.134h2.088c-.054.198-.036.342-.09.54-.324 1.926-1.638 3.114-4.5 4.302l1.044 1.476c3.078-1.44 4.608-2.772 5.04-5.508.054-.27.072-.54.126-.81h3.348l-.468 1.998h3.15l-.18 1.224c-.144.684-.45.882-1.656.936l-1.872.108.486 1.566 1.782-.108c1.89-.09 2.664-.45 2.898-2.034.054-.342.324-2.718.414-3.132h-3.024l.45-2.106h-8.244c1.566-.846 2.772-1.656 3.78-2.664V35.7h1.62Zm10.548-7.308V35.7c0 4.122-.396 5.076-1.908 7.542l1.656.9c1.044-1.818 1.656-3.276 1.89-5.274h3.996v4.608h1.746v-4.608h3.888v2.106c0 .792-.072.864-1.08.954l-1.17.108.54 1.854 1.206-.108c1.728-.144 2.268-.54 2.268-2.214V28.392h-13.032Zm5.634 1.782v2.646H216.1v-2.646h3.852Zm5.634 2.646h-3.888v-2.646h3.888v2.646Zm-9.504 4.266c.018-.234.018-.45.018-.72v-1.764h3.852v2.484h-3.87Zm5.616 0v-2.484h3.888v2.484h-3.888Zm23.526-7.38h-5.148a33.5 33.5 0 0 0-.774-2.178l-1.962.36c.234.63.396 1.188.594 1.818h-5.562v4.968c0 4.428-.612 5.85-2.34 8.298l1.692.99c1.458-2.268 2.16-3.852 2.394-7.164h11.106v-7.092Zm-1.818 5.364h-9.216v-3.69h9.216v3.69Zm20.196-2.916v-1.818h-4.896v-2.754l-1.764-.072v2.826h-4.302v1.818h3.654a19.528 19.528 0 0 1-4.464 6.678v-7.074c.522-1.206.99-2.484 1.386-3.852l-1.872-.324c-.864 2.934-2.484 6.066-3.78 7.938l1.116 1.602a32.03 32.03 0 0 0 1.422-2.052v8.622h1.728v-3.6l.63.846c2.088-2.178 3.474-4.302 4.482-6.732v5.022h-2.646v1.656h2.646v2.934h1.764v-2.934h2.79v-1.656h-2.79v-5.112c1.134 2.538 2.862 4.932 4.806 6.822l1.224-1.674c-2.25-2.034-4.14-4.356-5.292-7.11h4.158Zm7.47 1.188.954 1.332c.432-.36.846-.702 1.224-1.062v1.134h6.426v-1.278c.486.45 1.008.9 1.548 1.332l.954-1.386c-2.16-1.71-3.942-3.618-5.022-6.048h-1.368c-1.026 2.304-2.538 4.158-4.716 5.886l.288-4.968h-5.13v1.584h3.564l-.324 5.22h-1.332l.306-4.518-1.458-.072-.432 6.12h3.618c0 .702-.162 3.762-.162 4.176-.054.99-.252 1.116-1.35 1.206l-.99.072.504 1.494 1.08-.108c1.782-.198 2.124-.522 2.214-2.124 0-1.008.252-5.58.252-6.246h-.756l.108-1.746Zm5.436-3.924c.63 1.224 1.548 2.448 2.718 3.618h-5.382c1.17-1.206 2.016-2.394 2.664-3.618Zm1.134 10.206c-.234-1.26-.792-3.474-1.188-4.536l-1.404.45c.432 1.098.99 3.348 1.188 4.644l1.404-.558Zm1.458-4.374c-.432 1.836-1.17 4.302-1.908 6.21h-5.418v1.692h9.486V41.46h-2.502c.63-1.746 1.422-4.212 1.8-5.706l-1.458-.504Zm-4.104 4.986c-.234-1.35-.9-3.744-1.386-4.986l-1.332.468c.432 1.152 1.08 3.672 1.314 5.058l1.404-.54Zm-5.4-1.458-.036-.774c-1.314.27-2.646.504-3.96.666l.108 1.656a50.78 50.78 0 0 0 3.942-.774l-.054-.774Zm29.808-7.704v-1.746h-6.372c-.234-.774-.504-1.512-.666-1.998l-1.836.27c.144.414.342 1.08.54 1.728h-7.11v1.746h4.032c.144.81.378 2.214.522 3.15h-3.276v2.628c0 2.97-.45 4.284-2.088 6.3l1.638 1.044c1.53-2.16 2.196-3.924 2.196-6.984V35.97h11.88v-1.746h-3.618c.27-1.062.504-2.214.702-3.15h3.456Zm-9 3.15c-.144-.792-.36-2.232-.558-3.15h4.284c-.198 1.008-.414 2.196-.684 3.15h-3.042Zm24.12-6.264h-10.692v6.174h10.692V27.96Zm-1.782 4.482h-7.092v-2.79h7.092v2.79Zm-10.71 10.962h1.674v-.972h3.114v.972h1.674v-7.722h-6.462v7.722Zm7.668-7.722v7.722h1.674v-.972h3.222v.972h1.674v-7.722h-6.57Zm-2.88 1.638v3.474h-3.114V37.32h3.114Zm4.554 3.474v-3.456h3.222v3.456h-3.222Zm22.698-1.836v-1.602h-6.336V36.6l-.954-.036c3.762-1.458 6.174-3.258 7.56-5.58v-1.836h-5.04c.234-.378.45-.792.684-1.224l-1.584-.684c-.81 1.602-2.016 3.186-3.456 4.482v-3.96l-1.71-.072v4.518c-1.134.612-3.672 1.908-4.158 2.052l.63 1.656c.342-.198 2.286-1.206 3.528-1.818v2.484h1.71v-4.32l.792 1.026c.414-.342.738-.666 1.08-1.008a75.276 75.276 0 0 1 1.944 1.512 20.538 20.538 0 0 1-3.366 1.44l.774 1.314-.288-.018v.828h-6.3v1.602h5.922c-.81 1.422-2.898 2.394-6.768 3.258l.846 1.854c3.762-1.08 6.084-2.25 7.236-3.78 1.278 1.638 3.6 2.736 7.344 3.726l.774-1.854c-3.816-.774-5.976-1.71-7.056-3.204h6.192Zm-11.106-7.686a25.879 25.879 0 0 0-2.106-3.15l-1.296.9c.702.918 1.494 2.142 2.142 3.24l1.26-.99Zm5.256-.576h4.176c-.738 1.08-1.89 2.124-3.546 3.042l.792-1.224a28.547 28.547 0 0 0-1.8-1.332l.378-.486Z" fill="#424242" fill-rule="nonzero"/></g></svg>